<!-- Generated by IcoMoon.io -->
<svg version="1.1" xmlns="http://www.w3.org/2000/svg" width="32" height="32" viewBox="0 0 32 32">
<path d="M14.451 28.397c-0.070 0-0.147 0-0.224-0.013-0.736-0.096-1.28-0.57-1.453-1.267-0.077-0.307-0.070-0.659 0.013-0.992 0.499-2.010 1.005-4.013 1.517-6.016l0.365-1.44h-5.491c-0.896 0-1.402-0.371-1.67-0.678s-0.563-0.864-0.435-1.754c0.442-3.072 0.883-6.138 1.325-9.21 0.006-0.058 0.013-0.115 0.019-0.173 0.013-0.115 0.019-0.224 0.045-0.333 0.179-0.947 0.947-1.613 1.875-1.619 2.138-0.013 4.666-0.019 7.2 0 0.608 0 1.158 0.288 1.504 0.774 0.371 0.518 0.467 1.222 0.25 1.869-0.365 1.094-0.736 2.189-1.107 3.283l-0.346 1.018h0.954c1.382 0 2.765 0 4.147 0h0.013c0.864 0 1.472 0.333 1.805 0.992 0.339 0.666 0.269 1.357-0.211 2.054-2.886 4.211-5.76 8.429-8.64 12.646-0.397 0.576-0.883 0.87-1.453 0.87zM12.678 17.389h3.59l-0.205 0.922c-0.019 0.096-0.038 0.179-0.058 0.256l-0.467 1.856c-0.506 2.003-1.018 4.006-1.517 6.010-0.032 0.122-0.032 0.269-0.013 0.371 0.032 0.134 0.102 0.275 0.371 0.307 0.090 0.013 0.224 0.026 0.454-0.307 2.88-4.218 5.754-8.435 8.64-12.646 0.269-0.39 0.211-0.582 0.128-0.749-0.077-0.154-0.192-0.294-0.666-0.294h-0.013c-1.382 0.006-2.765 0-4.154 0h-2.714s0.896-2.714 0.896-2.714c0.371-1.088 0.742-2.182 1.107-3.277 0.090-0.262 0.058-0.531-0.077-0.723-0.077-0.109-0.218-0.237-0.474-0.237-2.522-0.019-5.043-0.013-7.181 0-0.384 0-0.57 0.294-0.621 0.576-0.013 0.070-0.019 0.147-0.026 0.218-0.006 0.077-0.013 0.16-0.026 0.237-0.442 3.072-0.883 6.138-1.325 9.21-0.032 0.224-0.038 0.538 0.134 0.736 0.166 0.198 0.474 0.237 0.704 0.237h2.426s1.082 0 1.082 0z"></path>
</svg>
