<?xml version="1.0" encoding="UTF-8"?><svg id="a" xmlns="http://www.w3.org/2000/svg" viewBox="0 0 50 50"><path d="M19.36,40c-3.71,0-7.41,0-11.12,0-1.39,0-2.06-.78-1.97-2.17.16-2.58,1.04-4.84,2.82-6.72,1.78-1.88,3.98-3.02,6.56-3.16,2.48-.14,4.97-.14,7.45,0,4.55.25,8.55,4.04,9.21,8.55.07.51.15,1.02.17,1.54.06,1.24-.66,1.98-1.9,1.98-3.21,0-6.41,0-9.62,0-.53,0-1.06,0-1.6,0ZM30.6,38.12c0-.27.03-.52,0-.76-.55-4.45-4.13-7.65-8.63-7.68-1.74-.01-3.47-.03-5.21,0-3.28.08-5.82,1.5-7.53,4.32-.76,1.25-1.09,2.63-1.13,4.12h22.5Z"/><path d="M26.85,17.51c0,4.13-3.35,7.48-7.49,7.48-4.12,0-7.49-3.36-7.5-7.48,0-4.14,3.38-7.52,7.52-7.5,4.14.01,7.47,3.36,7.46,7.51ZM25,17.5c0-3.1-2.53-5.64-5.62-5.65-3.09,0-5.66,2.53-5.67,5.61-.01,3.11,2.55,5.67,5.66,5.67,3.1,0,5.63-2.54,5.63-5.64Z"/><path d="M27,23.07c.32-.53.63-1.07.95-1.6,2.28,2.5,5.42,1.81,6.92.37,1.71-1.63,1.87-4.5.36-6.42-1.18-1.49-4.1-2.63-6.8-.54-.22-.56-.44-1.12-.66-1.68,1.81-1.65,5.83-2.02,8.4.57,2.65,2.67,2.6,6.83-.17,9.45-2.52,2.39-6.81,2.31-9-.16Z"/><path d="M30.07,28.87c.07-.04.1-.07.13-.07,2.18,0,4.38-.23,6.53.32,3.72.94,6.46,4.07,6.92,7.88.05.4.09.81.09,1.21,0,.95-.7,1.76-1.64,1.77-2.69.03-5.37.01-8.04.01.14-.6.28-1.19.43-1.84h7.41c-.04-1.61-.47-3.04-1.36-4.31-1.46-2.08-3.5-3.1-6.01-3.21-.8-.03-1.6,0-2.39-.02-.2,0-.44-.12-.59-.26-.5-.47-.97-.97-1.47-1.48Z"/></svg>