<?xml version="1.0" encoding="UTF-8"?><svg id="a" xmlns="http://www.w3.org/2000/svg" viewBox="0 0 50 50"><path d="M8.92,25.88c-.3,0-.54,0-.77,0-.64-.02-1.01-.35-1-.89,0-.53.37-.85.98-.87.24,0,.48,0,.77,0,0-.17.02-.33.02-.48,0-1.52,0-3.04,0-4.55,0-1.9,1.1-3,2.99-3,.77,0,1.54,0,2.35,0,.02-.31,0-.74.07-1.17.19-1.36.99-2.2,2.34-2.36.78-.09,1.59-.1,2.36,0,1.5.19,2.37,1.25,2.37,2.76,0,2.74,0,5.48,0,8.22,0,.18,0,.35,0,.56h7.18v-.52c0-2.68,0-5.36,0-8.04,0-1.93,1.09-3.02,3.02-3.02.64,0,1.29-.02,1.91.08,1.31.21,2.15,1.23,2.19,2.55.01.34,0,.68,0,.93.86,0,1.69,0,2.51,0,1.73,0,2.85,1.13,2.86,2.86,0,1.55,0,3.1,0,4.64,0,.16,0,.32,0,.54.28,0,.51,0,.74,0,.68.01,1.05.32,1.04.89,0,.55-.36.86-1.02.87-.23,0-.47,0-.76,0,0,.2,0,.36,0,.52,0,1.55,0,3.1,0,4.64,0,1.76-1.12,2.87-2.88,2.88-.81,0-1.63,0-2.49,0,0,.31.03.73,0,1.14-.13,1.31-1,2.23-2.37,2.39-.76.09-1.55.09-2.32,0-1.52-.18-2.41-1.26-2.41-2.83,0-2.72,0-5.45,0-8.17,0-.17,0-.35,0-.55h-7.18v.54c0,2.69,0,5.39,0,8.08,0,1.87-1.09,2.96-2.98,2.96-.43,0-.86,0-1.3,0-1.7-.01-2.82-1.13-2.85-2.83,0-.28,0-.56,0-.74-.84,0-1.64,0-2.44,0-1.8,0-2.92-1.12-2.92-2.94,0-1.52,0-3.04,0-4.55,0-.16,0-.32,0-.55ZM19.65,25c0-3.22,0-6.43,0-9.65,0-.78-.3-1.08-1.08-1.08-.4,0-.8,0-1.21,0-1.07,0-1.32.24-1.32,1.31,0,6.28,0,12.56,0,18.84,0,.1,0,.21,0,.31.03.66.35.98,1,.99.46,0,.92,0,1.39,0,.96,0,1.21-.26,1.21-1.22,0-3.17,0-6.34,0-9.51ZM33.95,25.03c0-3.22,0-6.43,0-9.65,0-.82-.29-1.11-1.1-1.11-.4,0-.8,0-1.21,0-1.04,0-1.3.25-1.3,1.28,0,6.3,0,12.59,0,18.89,0,.13,0,.27,0,.4.05.56.36.87.93.88.49.02.98,0,1.47,0,.93,0,1.2-.26,1.2-1.19,0-3.17,0-6.34,0-9.51ZM14.28,25c0-2.04,0-4.08,0-6.12,0-.73-.32-1.03-1.04-1.04-.45,0-.89,0-1.34,0-.95,0-1.23.28-1.23,1.22,0,2.29,0,4.58,0,6.88,0,1.71,0,3.42,0,5.13,0,.77.32,1.08,1.09,1.08.45,0,.89,0,1.34,0,.9,0,1.17-.27,1.17-1.17,0-1.99,0-3.99,0-5.98ZM39.32,25.01c0-2.04,0-4.08,0-6.12,0-.75-.31-1.05-1.06-1.06-.43,0-.86,0-1.3,0-.98,0-1.24.27-1.24,1.25,0,3.42,0,6.85,0,10.27,0,.61-.01,1.22,0,1.83.02.63.35.95.98.96.49,0,.98,0,1.47,0,.86,0,1.14-.28,1.14-1.16,0-1.99,0-3.99,0-5.98Z"/></svg>