<!-- Generated by IcoMoon.io -->
<svg version="1.1" xmlns="http://www.w3.org/2000/svg" width="26" height="32" viewBox="0 0 26 32">
<path d="M13.408 7.383c1.447 0 3.254-0.973 4.333-2.281 0.973-1.177 1.692-2.829 1.692-4.472 0-0.221-0.016-0.45-0.057-0.63-1.611 0.057-3.54 1.079-4.701 2.445-0.916 1.038-1.75 2.665-1.75 4.333 0 0.245 0.041 0.491 0.057 0.572 0.098 0.016 0.262 0.041 0.425 0.041zM8.323 32c1.97 0 2.845-1.324 5.306-1.324s3.050 1.284 5.249 1.284 3.597-1.995 4.963-3.949c1.529-2.24 2.158-4.431 2.199-4.538-0.139-0.041-4.276-1.733-4.276-6.467 0-4.112 3.254-5.96 3.442-6.099-2.158-3.090-5.429-3.172-6.328-3.172-2.42 0-4.39 1.463-5.633 1.463-1.341 0-3.115-1.382-5.208-1.382-3.99 0-8.037 3.295-8.037 9.517 0 3.867 1.504 7.955 3.36 10.596 1.586 2.24 2.968 4.072 4.963 4.072z"></path>
</svg>
