<!-- Generated by IcoMoon.io -->
<svg version="1.1" xmlns="http://www.w3.org/2000/svg" width="32" height="32" viewBox="0 0 32 32">
<path d="M24 28.48h-16c-1.414 0-2.56-1.146-2.56-2.56v-16c0-1.414 1.146-2.56 2.56-2.56h16c1.414 0 2.56 1.146 2.56 2.56v16c0 1.414-1.146 2.56-2.56 2.56zM8 8.64c-0.704 0-1.28 0.576-1.28 1.28v16c0 0.704 0.576 1.28 1.28 1.28h16c0.704 0 1.28-0.576 1.28-1.28v-16c0-0.704-0.576-1.28-1.28-1.28h-16z"></path>
<path d="M6.080 11.898h19.84v1.28h-19.84v-1.28z"></path>
<path d="M10.739 8.64c-0.352 0-0.64-0.288-0.64-0.64v-2.861c0-0.352 0.288-0.64 0.64-0.64s0.64 0.288 0.64 0.64v2.861c0 0.352-0.288 0.64-0.64 0.64z"></path>
<path d="M20.979 8.64c-0.352 0-0.64-0.288-0.64-0.64v-2.861c0-0.352 0.288-0.64 0.64-0.64s0.64 0.288 0.64 0.64v2.861c0 0.352-0.288 0.64-0.64 0.64z"></path>
</svg>
