<!-- Generated by IcoMoon.io -->
<svg version="1.1" xmlns="http://www.w3.org/2000/svg" width="32" height="32" viewBox="0 0 32 32">
<path d="M12.39 25.6c-2.374 0-4.742 0-7.117 0-0.89 0-1.318-0.499-1.261-1.389 0.102-1.651 0.666-3.098 1.805-4.301s2.547-1.933 4.198-2.022c1.587-0.090 3.181-0.090 4.768 0 2.912 0.16 5.472 2.586 5.894 5.472 0.045 0.326 0.096 0.653 0.109 0.986 0.038 0.794-0.422 1.267-1.216 1.267-2.054 0-4.102 0-6.157 0-0.339 0-0.678 0-1.024 0zM19.584 24.397c0-0.173 0.019-0.333 0-0.486-0.352-2.848-2.643-4.896-5.523-4.915-1.114-0.006-2.221-0.019-3.334 0-2.099 0.051-3.725 0.96-4.819 2.765-0.486 0.8-0.698 1.683-0.723 2.637h14.4z"></path>
<path d="M17.184 11.206c0 2.643-2.144 4.787-4.794 4.787-2.637 0-4.794-2.15-4.8-4.787 0-2.65 2.163-4.813 4.813-4.8 2.65 0.006 4.781 2.15 4.774 4.806zM16 11.2c0-1.984-1.619-3.61-3.597-3.616-1.978 0-3.622 1.619-3.629 3.59-0.006 1.99 1.632 3.629 3.622 3.629 1.984 0 3.603-1.626 3.603-3.61z"></path>
<path d="M17.28 14.765c0.205-0.339 0.403-0.685 0.608-1.024 1.459 1.6 3.469 1.158 4.429 0.237 1.094-1.043 1.197-2.88 0.23-4.109-0.755-0.954-2.624-1.683-4.352-0.346-0.141-0.358-0.282-0.717-0.422-1.075 1.158-1.056 3.731-1.293 5.376 0.365 1.696 1.709 1.664 4.371-0.109 6.048-1.613 1.53-4.358 1.478-5.76-0.102z"></path>
<path d="M19.245 18.477c0.045-0.026 0.064-0.045 0.083-0.045 1.395 0 2.803-0.147 4.179 0.205 2.381 0.602 4.134 2.605 4.429 5.043 0.032 0.256 0.058 0.518 0.058 0.774 0 0.608-0.448 1.126-1.050 1.133-1.722 0.019-3.437 0.006-5.146 0.006 0.090-0.384 0.179-0.762 0.275-1.178h4.742c-0.026-1.030-0.301-1.946-0.87-2.758-0.934-1.331-2.24-1.984-3.846-2.054-0.512-0.019-1.024 0-1.53-0.013-0.128 0-0.282-0.077-0.378-0.166-0.32-0.301-0.621-0.621-0.941-0.947z"></path>
</svg>
