<!-- Generated by IcoMoon.io -->
<svg version="1.1" xmlns="http://www.w3.org/2000/svg" width="32" height="32" viewBox="0 0 32 32">
<path d="M5.709 16.563c-0.192 0-0.346 0-0.493 0-0.41-0.013-0.646-0.224-0.64-0.57 0-0.339 0.237-0.544 0.627-0.557 0.154 0 0.307 0 0.493 0 0-0.109 0.013-0.211 0.013-0.307 0-0.973 0-1.946 0-2.912 0-1.216 0.704-1.92 1.914-1.92 0.493 0 0.986 0 1.504 0 0.013-0.198 0-0.474 0.045-0.749 0.122-0.87 0.634-1.408 1.498-1.51 0.499-0.058 1.018-0.064 1.51 0 0.96 0.122 1.517 0.8 1.517 1.766 0 1.754 0 3.507 0 5.261 0 0.115 0 0.224 0 0.358h4.595v-0.333c0-1.715 0-3.43 0-5.146 0-1.235 0.698-1.933 1.933-1.933 0.41 0 0.826-0.013 1.222 0.051 0.838 0.134 1.376 0.787 1.402 1.632 0.006 0.218 0 0.435 0 0.595 0.55 0 1.082 0 1.606 0 1.107 0 1.824 0.723 1.83 1.83 0 0.992 0 1.984 0 2.97 0 0.102 0 0.205 0 0.346 0.179 0 0.326 0 0.474 0 0.435 0.006 0.672 0.205 0.666 0.57 0 0.352-0.23 0.55-0.653 0.557-0.147 0-0.301 0-0.486 0 0 0.128 0 0.23 0 0.333 0 0.992 0 1.984 0 2.97 0 1.126-0.717 1.837-1.843 1.843-0.518 0-1.043 0-1.594 0 0 0.198 0.019 0.467 0 0.73-0.083 0.838-0.64 1.427-1.517 1.53-0.486 0.058-0.992 0.058-1.485 0-0.973-0.115-1.542-0.806-1.542-1.811 0-1.741 0-3.488 0-5.229 0-0.109 0-0.224 0-0.352h-4.595v0.346c0 1.722 0 3.45 0 5.171 0 1.197-0.698 1.894-1.907 1.894-0.275 0-0.55 0-0.832 0-1.088-0.006-1.805-0.723-1.824-1.811 0-0.179 0-0.358 0-0.474-0.538 0-1.050 0-1.562 0-1.152 0-1.869-0.717-1.869-1.882 0-0.973 0-1.946 0-2.912 0-0.102 0-0.205 0-0.352zM12.576 16c0-2.061 0-4.115 0-6.176 0-0.499-0.192-0.691-0.691-0.691-0.256 0-0.512 0-0.774 0-0.685 0-0.845 0.154-0.845 0.838 0 4.019 0 8.038 0 12.058 0 0.064 0 0.134 0 0.198 0.019 0.422 0.224 0.627 0.64 0.634 0.294 0 0.589 0 0.89 0 0.614 0 0.774-0.166 0.774-0.781 0-2.029 0-4.058 0-6.086zM21.728 16.019c0-2.061 0-4.115 0-6.176 0-0.525-0.186-0.71-0.704-0.71-0.256 0-0.512 0-0.774 0-0.666 0-0.832 0.16-0.832 0.819 0 4.032 0 8.058 0 12.090 0 0.083 0 0.173 0 0.256 0.032 0.358 0.23 0.557 0.595 0.563 0.314 0.013 0.627 0 0.941 0 0.595 0 0.768-0.166 0.768-0.762 0-2.029 0-4.058 0-6.086zM9.139 16c0-1.306 0-2.611 0-3.917 0-0.467-0.205-0.659-0.666-0.666-0.288 0-0.57 0-0.858 0-0.608 0-0.787 0.179-0.787 0.781 0 1.466 0 2.931 0 4.403 0 1.094 0 2.189 0 3.283 0 0.493 0.205 0.691 0.698 0.691 0.288 0 0.57 0 0.858 0 0.576 0 0.749-0.173 0.749-0.749 0-1.274 0-2.554 0-3.827zM25.165 16.006c0-1.306 0-2.611 0-3.917 0-0.48-0.198-0.672-0.678-0.678-0.275 0-0.55 0-0.832 0-0.627 0-0.794 0.173-0.794 0.8 0 2.189 0 4.384 0 6.573 0 0.39-0.006 0.781 0 1.171 0.013 0.403 0.224 0.608 0.627 0.614 0.314 0 0.627 0 0.941 0 0.55 0 0.73-0.179 0.73-0.742 0-1.274 0-2.554 0-3.827z"></path>
</svg>
