<?xml version="1.0" encoding="UTF-8"?><svg id="a" xmlns="http://www.w3.org/2000/svg" viewBox="0 0 50 50"><path d="M24.18,28.17c-1.51,0-2.94,0-4.37,0-1.83,0-3.65,0-5.48,0-1.65,0-2.53-1.03-2.3-2.66.69-4.8,1.38-9.59,2.07-14.39.04-.25.04-.51.09-.75.18-1,.95-1.71,1.95-1.71,3.74-.02,7.49-.03,11.23,0,1.41.01,2.27,1.39,1.8,2.81-.83,2.49-1.68,4.96-2.52,7.45-.06.17-.11.34-.19.59.24,0,.43,0,.62,0,2.91,0,5.82,0,8.74,0,.84,0,1.55.21,1.95,1,.4.77.22,1.49-.26,2.19-4.51,6.58-9,13.17-13.5,19.76-.41.6-.91,1-1.66.91-.72-.09-1.25-.51-1.43-1.23-.08-.33-.07-.72.02-1.06,1.02-4.1,2.06-8.2,3.1-12.3.04-.17.08-.35.13-.6Z" style="fill:none; stroke:#000; stroke-miterlimit:10; stroke-width:2px;"/></svg>