<!-- Generated by IcoMoon.io -->
<svg version="1.1" xmlns="http://www.w3.org/2000/svg" width="32" height="32" viewBox="0 0 32 32">
<path d="M22.080 26.266h-12.16c-1.414 0-2.56-1.146-2.56-2.56v-9.6h1.28v9.6c0 0.704 0.576 1.28 1.28 1.28h12.16c0.704 0 1.28-0.576 1.28-1.28v-9.6h1.28v9.6c0 1.414-1.146 2.56-2.56 2.56z"></path>
<path d="M27.52 18.266c-0.166 0-0.326-0.064-0.454-0.186l-11.066-11.066-11.066 11.066c-0.25 0.25-0.653 0.25-0.902 0s-0.25-0.653 0-0.902l11.066-11.072c0.499-0.499 1.312-0.499 1.811 0l11.066 11.066c0.25 0.25 0.25 0.653 0 0.902-0.128 0.128-0.288 0.186-0.454 0.186z"></path>
<path d="M18.88 26.266h-5.76v-7.040c0-0.704 0.576-1.28 1.28-1.28h3.2c0.704 0 1.28 0.576 1.28 1.28v7.040zM14.4 24.986h3.2v-5.76h-3.2v5.76z"></path>
</svg>
