<?xml version="1.0" encoding="UTF-8"?>
<svg id="Layer_2" data-name="Layer 2" xmlns="http://www.w3.org/2000/svg" xmlns:xlink="http://www.w3.org/1999/xlink" viewBox="0 0 355.09 354.88">
  <defs>
    <clipPath id="clippath">
      <path d="M348.26,245.17c-4.17-16.29-8.35-32.58-12.53-48.86-11.92-46.45-23.84-92.89-35.69-139.35-.96-3.77-2.8-6.09-6.3-7.92-29.85-15.64-59.59-31.47-89.36-47.24-5.38-2.85-7.05-2.48-10.77,2.3-11.97,15.39-23.94,30.77-35.89,46.16-3.71,4.78-3.53,6.92.89,10.84,15.7,13.95,31.4,27.9,47.11,41.84,4.25,3.76,7.3,3.34,10.49-1.34,1.74-2.57,2.96-6.19,5.39-7.4,2.32-1.16,5.17,2.02,7.97,2.89,3.53,1.09,7.09,2.03,10.77,2.31,2.05.15,2.64.76,2.31,2.93-1.28,8.45-2.43,16.92-3.61,25.38-.19,1.33-.37,2.66-.56,3.99-.1.7-.2,1.39-.3,2.09-2.21,15.5-4.54,30.98-6.62,46.5-.38,2.78-.99,2.94-3.32,1.77-14.38-7.24-29.41-11.75-45.76-10.98-15.7.73-29.24,6.72-41.09,16.7-2.39,2.02-3.44,2.02-5.47-.39-11.71-13.86-25.84-24.21-43.72-28.68-19.18-4.79-37.69-1.99-55.74,5.22-11.39,4.55-21.93,10.62-31.69,18.05-1.73,1.31-3.4,2.67-4.7,4.42,0,56.16.02,112.32-.07,168.48,9.72-.27,19.44-.14,29.17-.14,3.67-1.5,7.6-.97,11.39-1.29,19.77-1.71,39.45-4.22,58.25-10.67,8.06-2.76,15.12-3.04,23.26-.41,13.08,4.22,26.9,5.03,40.57,6,11.17.78,22.36.98,33.56.83,22.3-.32,43.44-6,64-14.09,25.16-9.89,48.6-23.05,70.62-38.7,2.57-1.83,5.01-2.93,8.2-2.68.8.07,1.61.1,2.41.11,1.86.04,3.72-.02,5.57-.05.66-.01,1.3-.22,1.94-.39,2.5-.71,4.62-2.83,5.45-5.09.28-.77.48-1.57.54-2.38,1.06-14.13-3.24-27.37-6.67-40.76ZM19.65,343.35c-8.87.63-8.82.5-8.55-8.56.06-1.83.62-2.24,2.34-2.36,6.65-.49,13.27-1.17,19.9-1.79,0,3.12.07,6.23-.05,9.34-.06,1.63.61,2.33,2.15,2.39-5.22,1.08-10.53.6-15.79.98ZM186.44,182.17c15.07.07,28.57,5.32,41.57,12.32,1.14.61,1.41,1.29,1.21,2.48-.56,3.28-1.04,6.58-1.55,9.87-.58-.89-1.25-1.56-2.43-1.72-13.41-1.85-26.38-.66-38.67,5.46-7.08,3.52-13.36,8.13-18.97,13.68-.9.89-1.74,2.47-3.24.49-2.08-2.75-4.2-5.47-6.47-8.06-4.71-5.38-9.92-10.21-16.11-13.88,12.02-13.07,26.53-20.72,44.66-20.64ZM263.83,302.39c-21.85,15.07-45.5,24.93-72.57,24.71-21.7-.2-42.81-3.78-63.36-10.69-.86-.28-3.12-.14-1.84-2.25,1.71-2.8,1.09-6.96,4.95-8.48.16-.06.42.17.63.24,13.8,4.57,27.93,7.67,42.4,9.01,10.8,1,21.62,1.78,32.42-.03,19.57-3.27,36.97-11.56,52.86-23.16,2.62-1.91,3.84-1.86,5.84.7,4.5,5.76,4.74,5.76-1.33,9.95ZM287.68,65.22c-16.81-8.9-24.55-11.15-38.65-19.88-3.06-1.89-7.07-1.07-9.11,1.9l-21.97,31.92-.02.02-8.35,12.13c-1.26-1.08-2.3-2.18-3.53-2.98-2.35-1.53-2.52-2.85-.61-5.1,4.86-5.71,9.35-11.72,14.14-17.48,2.26-2.72,2.79-5.29.99-8.49-1.68-2.99-2.98-6.19-4.45-9.29-1.91-.6-3.22.81-4.67,1.52-5.52,2.66-5.49,2.72-3.51,8.06-2.24,4.25-5.71,7.6-8.47,11.47-1.91,2.69-4.04,5.22-6.07,7.82-.63-.54-1.26-1.1-1.88-1.66-.89-.78-1.77-1.57-2.7-2.3-.31-.25-.62-.49-.94-.72-.07-.05-.15-.11-.21-.16-.68-.49-1.37-.94-2.11-1.34.59-.68,1.17-1.36,1.74-2.05.07-.09.15-.18.23-.28.53-.63,1.05-1.26,1.57-1.9,1.04-1.27,2.07-2.55,3.09-3.83,1.97-2.47,3.92-4.96,5.89-7.43.59-.74,1.18-1.48,1.78-2.22,7.1-8.77,6.47-7.37,1.79-16.85-2.65-5.37-2.67-5.36-7.95-2.72-4.73,2.36-4.88,2.44-2.22,7.21,1.26,2.26,1.2,3.82-.54,5.76-2.61,2.91-4.89,6.12-7.41,9.12-1.98,2.36-3.47,6.55-6.02,6.62-2.74.08-4.85-3.8-7.39-5.75-1.62-1.25-1.35-2.1-.2-3.56,9.83-12.5,19.62-25.04,29.27-37.68,1.55-2.04,2.62-2.05,4.73-.93,26.17,13.95,52.32,27.93,78.67,41.53,4.87,2.52,7.92,5.44,8.23,10.93-1.05-.47-2.13-.88-3.14-1.41Z"/>
    </clipPath>
  </defs>
  <g id="Layer_2-2" data-name="Layer 2">
    <g class="cls-4" clip-path="url(#clippath)">
      <g>
        <path fill="#f37d52" d="M231.84,277.5c55.67,74.03,142.97,102.41,193.61,103.99,16.48.52,28.54-13.49,37.34-33.63l15.86,11.25v140.46H-319.37V-135.24l94.72,3.48,11.63,18.58S-244.38,5.21-43.78,45.42c89.49,17.94,139.76,41.18,172.67,69.94"/>
        <path fill="#8461a8" d="M139.76,151.22c-32.91-28.76-83.18-52-172.67-69.94C-233.51,41.07-202.15-77.32-202.15-77.32l-11.63-18.58-39.01-62.33,532.02-182.05L497.37,248.42s-2.14,86.02-23.71,135.3c-8.8,20.14-20.86,34.15-37.34,33.63-50.64-1.58-137.94-29.96-193.61-103.99"/>
      </g>
    </g>
  </g>
</svg>